<svg width="88.000000" height="88.000000" viewBox="0 0 88 88" fill="none" xmlns="http://www.w3.org/2000/svg" xmlns:xlink="http://www.w3.org/1999/xlink">
	<desc>
			Created with Pixso.
	</desc>
	<defs>
		<clipPath id="clip1_899">
			<rect id="map 1" width="43.000000" height="43.000000" transform="translate(22.000000 22.000000)" fill="white" fill-opacity="0"/>
		</clipPath>
	</defs>
	<g opacity="0.300000">
		<circle id="Ellipse 4" cx="44.000000" cy="44.000000" r="44.000000" fill="#ABD2D9" fill-opacity="1.000000"/>
	</g>
	<rect id="map 1" width="43.000000" height="43.000000" transform="translate(22.000000 22.000000)" fill="#FFFFFF" fill-opacity="0"/>
	<g clip-path="url(#clip1_899)">
		<path id="Vector" d="M53.73 37.67C52.04 37.67 50.66 39.05 50.66 40.74C50.66 42.44 52.04 43.81 53.73 43.81C55.43 43.81 56.8 42.44 56.8 40.74C56.8 39.05 55.43 37.67 53.73 37.67ZM53.73 42.28C52.89 42.28 52.2 41.59 52.2 40.74C52.2 39.9 52.89 39.21 53.73 39.21C54.58 39.21 55.27 39.9 55.27 40.74C55.27 41.59 54.58 42.28 53.73 42.28Z" fill="#3A98B2" fill-opacity="1.000000" fill-rule="nonzero"/>
		<path id="Vector" d="M32.36 29.99C30.95 29.99 29.8 31.14 29.8 32.55C29.8 33.97 30.95 35.11 32.36 35.11C33.78 35.11 34.92 33.97 34.92 32.55C34.92 31.14 33.78 29.99 32.36 29.99ZM32.36 33.58C31.8 33.58 31.34 33.12 31.34 32.55C31.34 31.99 31.8 31.53 32.36 31.53C32.93 31.53 33.39 31.99 33.39 32.55C33.39 33.12 32.93 33.58 32.36 33.58Z" fill="#3A98B2" fill-opacity="1.000000" fill-rule="nonzero"/>
		<path id="Vector" d="M62.96 29.26L52.7 28.16C52.14 28.1 51.4 28.07 50.66 28.07C49.92 28.07 49.19 28.1 48.63 28.16L38.36 29.26C38.18 29.28 37.98 29.3 37.76 29.31C36.57 27.56 34.54 26.41 32.23 26.41C30.3 26.41 28.57 27.23 27.35 28.52L24.03 28.16C23.96 28.16 23.89 28.15 23.81 28.15C22.8 28.15 22 28.94 22 29.99L22 57.12C22 58.25 22.91 59.27 24.03 59.39L34.29 60.49C34.85 60.55 35.59 60.58 36.33 60.58C37.07 60.58 37.8 60.55 38.36 60.49L48.63 59.39C49.19 59.33 49.92 59.3 50.66 59.3C51.4 59.3 52.14 59.33 52.7 59.39L62.96 60.49C63.03 60.5 63.1 60.5 63.18 60.5C64.19 60.5 65 59.71 65 58.66L65 31.53C64.99 30.4 64.08 29.38 62.96 29.26ZM35.56 59.03C35.14 59.02 34.76 59 34.46 58.96L24.2 57.86C23.85 57.83 23.53 57.47 23.53 57.12L23.53 29.99C23.53 29.8 23.64 29.69 23.82 29.69L23.87 29.69L26.32 29.95C25.85 30.85 25.58 31.86 25.58 32.94C25.58 36.13 30.18 41.29 31.1 42.29L32.23 43.52L33.36 42.3C33.72 41.91 34.6 40.93 35.56 39.68L35.56 59.03ZM32.23 41.26C32.23 41.26 27.11 35.69 27.11 32.94C27.11 30.18 29.41 27.95 32.23 27.95C35.06 27.95 37.35 30.18 37.35 32.94C37.35 35.69 32.23 41.26 32.23 41.26ZM49.89 57.78C49.36 57.79 48.87 57.82 48.46 57.86L38.2 58.96C37.9 58.99 37.51 59.02 37.1 59.03L37.1 37.49C38.09 35.93 38.89 34.26 38.89 32.94C38.89 32.18 38.75 31.47 38.51 30.79C38.52 30.79 38.52 30.79 38.53 30.79L48.79 29.69C49.09 29.66 49.48 29.64 49.89 29.62L49.89 34.62C47.6 35.95 46.05 38.42 46.05 41.26C46.05 43.56 48.07 46.78 49.89 49.22L49.89 57.78ZM47.59 41.26C47.59 37.86 50.34 35.11 53.73 35.11C57.13 35.11 59.88 37.86 59.88 41.26C59.88 44.65 53.73 51.49 53.73 51.49C53.73 51.49 47.59 44.65 47.59 41.26ZM63.46 58.66L63.46 58.66C63.46 58.85 63.36 58.96 63.17 58.96L63.12 58.96L52.86 57.86C52.46 57.82 51.96 57.79 51.43 57.78L51.43 51.17C51.95 51.79 52.36 52.27 52.59 52.52L53.73 53.79L54.88 52.52C55.97 51.3 61.41 45.04 61.41 41.26C61.41 37.02 57.97 33.58 53.73 33.58C52.93 33.58 52.16 33.7 51.43 33.93L51.43 29.62C51.85 29.64 52.23 29.66 52.53 29.69L62.8 30.79C63.14 30.83 63.46 31.19 63.46 31.53L63.46 58.66L63.46 58.66Z" fill="#3A98B2" fill-opacity="1.000000" fill-rule="nonzero"/>
	</g>
</svg>
