<svg width="88.000000" height="88.000000" viewBox="0 0 88 88" fill="none" xmlns="http://www.w3.org/2000/svg" xmlns:xlink="http://www.w3.org/1999/xlink">
	<desc>
			Created with Pixso.
	</desc>
	<defs>
		<clipPath id="clip1_915">
			<rect id="Frame 7" width="52.000000" height="52.000000" transform="translate(18.000000 18.000000)" fill="white" fill-opacity="0"/>
		</clipPath>
		<clipPath id="clip1_917">
			<rect id="warehouse 1" width="50.000000" height="50.000000" transform="translate(19.000000 19.000000)" fill="white" fill-opacity="0"/>
		</clipPath>
	</defs>
	<rect id="warehouse 1" width="50.000000" height="50.000000" transform="translate(19.000000 19.000000)" fill="#FFFFFF" fill-opacity="0"/>
	<g clip-path="url(#clip1_917)">
		<path id="Vector" d="M68.58 33.28L44.42 19.11C44.16 18.96 43.85 18.96 43.59 19.1L19.43 32.43C19.16 32.58 19 32.86 19 33.16L19 68.16C19 68.62 19.37 69 19.83 69L24 69C24.46 69 24.83 68.62 24.83 68.16L24.83 39L63.16 39L63.16 68.16C63.16 68.62 63.53 69 63.99 69L68.16 69C68.62 69 68.99 68.62 68.99 68.16L68.99 34C69 33.7 68.84 33.43 68.58 33.28ZM67.33 67.33L64.83 67.33L64.83 38.16C64.83 37.7 64.46 37.33 64 37.33L24 37.33C23.54 37.33 23.16 37.7 23.16 38.16L23.16 67.33L20.66 67.33L20.66 33.65L43.98 20.79L67.33 34.47L67.33 67.33Z" fill="#3A98B2" fill-opacity="1.000000" fill-rule="nonzero"/>
		<path id="Vector" d="M60.66 57.33L50.66 57.33C50.2 57.33 49.83 57.7 49.83 58.16L49.83 68.16C49.83 68.62 50.2 68.99 50.66 68.99L60.66 68.99C61.12 68.99 61.5 68.62 61.5 68.16L61.5 58.16C61.5 57.7 61.12 57.33 60.66 57.33ZM59.83 67.33L51.5 67.33L51.5 58.99L59.83 58.99L59.83 67.33Z" fill="#3A98B2" fill-opacity="1.000000" fill-rule="nonzero"/>
		<path id="Vector" d="M56.5 58.16L56.5 60.66L54.83 60.66L54.83 58.16L53.16 58.16L53.16 61.49C53.16 61.96 53.53 62.33 53.99 62.33L57.33 62.33C57.79 62.33 58.16 61.96 58.16 61.49L58.16 58.16L56.5 58.16Z" fill="#3A98B2" fill-opacity="1.000000" fill-rule="nonzero"/>
		<path id="Vector" d="M50.66 57.33L40.66 57.33C40.2 57.33 39.83 57.7 39.83 58.16L39.83 68.16C39.83 68.62 40.2 68.99 40.66 68.99L50.66 68.99C51.12 68.99 51.5 68.62 51.5 68.16L51.5 58.16C51.5 57.7 51.12 57.33 50.66 57.33ZM49.83 67.33L41.5 67.33L41.5 58.99L49.83 58.99L49.83 67.33Z" fill="#3A98B2" fill-opacity="1.000000" fill-rule="nonzero"/>
		<path id="Vector" d="M46.5 58.16L46.5 60.66L44.83 60.66L44.83 58.16L43.16 58.16L43.16 61.49C43.16 61.96 43.54 62.33 43.99 62.33L47.33 62.33C47.79 62.33 48.16 61.96 48.16 61.49L48.16 58.16L46.5 58.16Z" fill="#3A98B2" fill-opacity="1.000000" fill-rule="nonzero"/>
		<path id="Vector" d="M60.66 47.33L50.66 47.33C50.2 47.33 49.83 47.7 49.83 48.16L49.83 58.16C49.83 58.62 50.2 58.99 50.66 58.99L60.66 58.99C61.12 58.99 61.5 58.62 61.5 58.16L61.5 48.16C61.5 47.7 61.12 47.33 60.66 47.33ZM59.83 57.33L51.5 57.33L51.5 48.99L59.83 48.99L59.83 57.33Z" fill="#3A98B2" fill-opacity="1.000000" fill-rule="nonzero"/>
		<path id="Vector" d="M56.5 48.16L56.5 50.66L54.83 50.66L54.83 48.16L53.16 48.16L53.16 51.49C53.16 51.96 53.53 52.33 53.99 52.33L57.33 52.33C57.79 52.33 58.16 51.96 58.16 51.49L58.16 48.16L56.5 48.16Z" fill="#3A98B2" fill-opacity="1.000000" fill-rule="nonzero"/>
		<path id="Vector" d="M24 44L64 44L64 45.66L24 45.66L24 44Z" fill="#3A98B2" fill-opacity="1.000000" fill-rule="evenodd"/>
		<path id="Vector" d="M24 40.66L64 40.66L64 42.33L24 42.33L24 40.66Z" fill="#3A98B2" fill-opacity="1.000000" fill-rule="evenodd"/>
		<path id="Vector" d="M48.16 30.66L39.83 30.66C39.37 30.66 39 31.03 39 31.49L39 34.83C39 35.29 39.37 35.66 39.83 35.66L48.16 35.66C48.62 35.66 49 35.29 49 34.83L49 31.49C49 31.03 48.62 30.66 48.16 30.66ZM47.33 34L40.66 34L40.66 32.33L47.33 32.33L47.33 34Z" fill="#3A98B2" fill-opacity="1.000000" fill-rule="nonzero"/>
	</g>
	<g opacity="0.300000">
		<circle id="Ellipse 5" cx="44.000000" cy="44.000000" r="44.000000" fill="#ABD2D9" fill-opacity="1.000000"/>
	</g>
</svg>
