<svg width="88.000000" height="88.000000" viewBox="0 0 88 88" fill="none" xmlns="http://www.w3.org/2000/svg" xmlns:xlink="http://www.w3.org/1999/xlink">
	<desc>
			Created with Pixso.
	</desc>
	<defs>
		<clipPath id="clip1_776">
			<rect id="Frame 5" width="52.000000" height="52.000000" transform="translate(18.000000 18.000000)" fill="white" fill-opacity="0"/>
		</clipPath>
	</defs>
	<g opacity="0.300000">
		<circle id="Ellipse 6" cx="44.000000" cy="44.000000" r="44.000000" fill="#ABD2D9" fill-opacity="1.000000"/>
	</g>
	<g clip-path="url(#clip1_776)">
		<path id="path58" d="M54.71 48.9L48.09 45.47L59.78 36.24L66.46 39.27L54.71 48.9ZM59.22 54.02L47.65 65.24L47.65 46.4L54.55 49.97C54.72 50.06 54.93 50.04 55.08 49.91L59.22 46.52L59.22 54.02ZM28.37 46.01L39.45 52.13C39.52 52.17 39.6 52.19 39.68 52.19C39.79 52.19 39.9 52.15 39.99 52.08L46.66 46.62L46.66 65.48L28.37 55.83L28.37 46.01ZM27.95 36.54L46.22 45.67L39.63 51.06L21.6 41.1L27.95 36.54ZM21.6 32.29L33.76 24.15L39.74 27.01L27.86 35.35L21.6 32.29ZM40.25 41.54L28.9 35.87L40.25 27.9L40.25 41.54ZM47.1 44.96L41.25 42.03L41.25 27.72L58.74 35.76L47.1 44.96ZM46.43 23.26L64.69 31.22L59.65 35.05L41.74 26.81L46.43 23.26ZM67.91 39.08C67.89 38.9 67.78 38.75 67.62 38.67L60.71 35.53L65.99 31.51C66.13 31.4 66.21 31.22 66.19 31.04C66.17 30.85 66.05 30.69 65.89 30.62L46.56 22.2C46.4 22.12 46.21 22.15 46.07 22.25L40.69 26.33L33.93 23.1C33.77 23.02 33.59 23.04 33.45 23.13L20.3 31.93C20.15 32.03 20.06 32.21 20.08 32.4C20.09 32.58 20.2 32.75 20.36 32.83L26.91 36.03L20.36 40.74C20.22 40.84 20.14 41.01 20.15 41.19C20.16 41.37 20.26 41.53 20.41 41.62L27.37 45.46L27.37 56.14C27.37 56.34 27.48 56.52 27.64 56.61L47 66.82C47.07 66.86 47.15 66.87 47.23 66.87C47.35 66.87 47.47 66.83 47.57 66.74L60.06 54.62C60.16 54.52 60.21 54.39 60.21 54.24L60.21 45.71L67.73 39.55C67.86 39.44 67.93 39.26 67.91 39.08Z" fill="#3A98B2" fill-opacity="1.000000" fill-rule="nonzero"/>
	</g>
</svg>
