<svg width="88.000000" height="88.000000" viewBox="0 0 88 88" fill="none" xmlns="http://www.w3.org/2000/svg" xmlns:xlink="http://www.w3.org/1999/xlink">
	<desc>
			Created with Pixso.
	</desc>
	<defs>
		<clipPath id="clip1_1577">
			<rect id="boxes 1" width="50.000000" height="50.000000" transform="translate(20.000000 17.000000)" fill="white" fill-opacity="0"/>
		</clipPath>
		<clipPath id="clip1_1570">
			<rect id="boxes" width="50.000000" height="52.000000" transform="translate(19.000000 16.000000)" fill="white" fill-opacity="0"/>
		</clipPath>
	</defs>
	<g clip-path="url(#clip1_1570)">
		<rect id="boxes 1" width="50.000000" height="50.000000" transform="translate(20.000000 17.000000)" fill="#FFFFFF" fill-opacity="0"/>
		<g clip-path="url(#clip1_1577)">
			<path id="Vector" d="M66.87 67L43.95 67C43.38 67 42.91 66.53 42.91 65.95L42.91 43.04C42.91 42.46 43.38 42 43.95 42L66.87 42C67.44 42 67.91 42.46 67.91 43.04L67.91 65.95C67.91 66.53 67.44 67 66.87 67ZM45 64.91L65.83 64.91L65.83 44.08L45 44.08L45 64.91Z" fill="#3A98B2" fill-opacity="1.000000" fill-rule="nonzero"/>
			<path id="Vector" d="M55.41 44.08L32.5 44.08C31.92 44.08 31.45 43.61 31.45 43.04L31.45 20.12C31.45 19.54 31.92 19.08 32.5 19.08L55.41 19.08C55.99 19.08 56.45 19.54 56.45 20.12L56.45 43.04C56.45 43.61 55.99 44.08 55.41 44.08ZM33.54 42L54.37 42L54.37 21.16L33.54 21.16L33.54 42Z" fill="#3A98B2" fill-opacity="1.000000" fill-rule="nonzero"/>
			<path id="Vector" d="M47.08 29.5L40.83 29.5C40.25 29.5 39.79 29.03 39.79 28.45L39.79 20.12C39.79 19.54 40.25 19.08 40.83 19.08L47.08 19.08C47.65 19.08 48.12 19.54 48.12 20.12L48.12 28.45C48.12 29.03 47.65 29.5 47.08 29.5ZM41.87 27.41L46.04 27.41L46.04 21.16L41.87 21.16L41.87 27.41Z" fill="#3A98B2" fill-opacity="1.000000" fill-rule="nonzero"/>
			<path id="Vector" d="M58.54 52.41L52.29 52.41C51.71 52.41 51.25 51.95 51.25 51.37L51.25 43.04C51.25 42.46 51.71 42 52.29 42L58.54 42C59.11 42 59.58 42.46 59.58 43.04L59.58 51.37C59.58 51.95 59.11 52.41 58.54 52.41ZM53.33 50.33L57.5 50.33L57.5 44.08L53.33 44.08L53.33 50.33Z" fill="#3A98B2" fill-opacity="1.000000" fill-rule="nonzero"/>
			<path id="Vector" d="M43.95 67L21.04 67C20.46 67 20 66.53 20 65.95L20 43.04C20 42.46 20.46 42 21.04 42L43.95 42C44.53 42 45 42.46 45 43.04L45 65.95C45 66.53 44.53 67 43.95 67ZM22.08 64.91L42.91 64.91L42.91 44.08L22.08 44.08L22.08 64.91Z" fill="#3A98B2" fill-opacity="1.000000" fill-rule="nonzero"/>
			<path id="Vector" d="M35.62 52.41L29.37 52.41C28.8 52.41 28.33 51.95 28.33 51.37L28.33 43.04C28.33 42.46 28.8 42 29.37 42L35.62 42C36.2 42 36.66 42.46 36.66 43.04L36.66 51.37C36.66 51.95 36.2 52.41 35.62 52.41ZM30.41 50.33L34.58 50.33L34.58 44.08L30.41 44.08L30.41 50.33Z" fill="#3A98B2" fill-opacity="1.000000" fill-rule="nonzero"/>
		</g>
	</g>
	<g opacity="0.300000">
		<circle id="Ellipse 4" cx="44.000000" cy="44.000000" r="44.000000" fill="#ABD2D9" fill-opacity="1.000000"/>
	</g>
</svg>
