<svg width="88.000000" height="88.000000" viewBox="0 0 88 88" fill="none" xmlns="http://www.w3.org/2000/svg" xmlns:xlink="http://www.w3.org/1999/xlink">
	<desc>
			Created with Pixso.
	</desc>
	<defs>
		<clipPath id="clip1_783">
			<rect id="moving-truck 1" width="50.000000" height="50.000000" transform="translate(19.000000 19.000000)" fill="white" fill-opacity="0"/>
		</clipPath>
		<clipPath id="clip1_884">
			<rect id="Frame 8" width="52.000000" height="51.000000" transform="translate(18.000000 18.000000)" fill="white" fill-opacity="0"/>
		</clipPath>
	</defs>
	<rect id="moving-truck 1" width="50.000000" height="50.000000" transform="translate(19.000000 19.000000)" fill="#FFFFFF" fill-opacity="0"/>
	<g clip-path="url(#clip1_783)">
		<path id="Vector" d="M51.03 40.09C50.59 40.09 50.25 40.44 50.25 40.87L50.25 54.15C50.25 54.58 50.59 54.93 51.03 54.93C51.46 54.93 51.81 54.58 51.81 54.15L51.81 40.87C51.81 40.44 51.46 40.09 51.03 40.09Z" fill="#3A98B2" fill-opacity="1.000000" fill-rule="nonzero"/>
		<path id="Vector" d="M68.21 59.62L65.89 59.62C65.45 59.62 65.11 59.97 65.11 60.4C65.11 60.83 65.45 61.18 65.89 61.18L68.21 61.18C68.65 61.18 69 60.83 69 60.4C69 59.97 68.65 59.62 68.21 59.62Z" fill="#3A98B2" fill-opacity="1.000000" fill-rule="nonzero"/>
		<path id="Vector" d="M68.21 59.62C67.78 59.62 67.43 59.97 67.43 60.4L67.43 63.53C67.43 63.96 67.78 64.31 68.21 64.31C68.65 64.31 69 63.96 69 63.53L69 60.4C69 59.97 68.65 59.62 68.21 59.62Z" fill="#3A98B2" fill-opacity="1.000000" fill-rule="nonzero"/>
		<path id="Vector" d="M26.81 62.75C26.81 62.75 26.81 62.75 26.81 62.75L21.34 62.76C20.9 62.76 20.56 63.11 20.56 63.55C20.56 63.98 20.91 64.32 21.34 64.32C21.34 64.32 21.34 64.32 21.34 64.32L26.81 64.31C27.24 64.31 27.59 63.96 27.59 63.52C27.59 63.09 27.24 62.75 26.81 62.75Z" fill="#3A98B2" fill-opacity="1.000000" fill-rule="nonzero"/>
		<path id="Vector" d="M67.43 55.71L66.65 55.71C66.22 55.71 65.87 56.06 65.87 56.5C65.87 56.93 66.22 57.28 66.65 57.28L67.43 57.28C67.86 57.28 68.21 56.93 68.21 56.5C68.21 56.06 67.86 55.71 67.43 55.71Z" fill="#3A98B2" fill-opacity="1.000000" fill-rule="nonzero"/>
		<path id="Vector" d="M67.43 50.25C67 50.25 66.65 50.59 66.65 51.03L66.65 60.4C66.65 60.83 67 61.18 67.43 61.18C67.86 61.18 68.21 60.83 68.21 60.4L68.21 51.03C68.21 50.59 67.86 50.25 67.43 50.25Z" fill="#3A98B2" fill-opacity="1.000000" fill-rule="nonzero"/>
		<path id="Vector" d="M62.75 40.09L51.03 40.09C50.59 40.09 50.25 40.44 50.25 40.87C50.25 41.3 50.59 41.65 51.03 41.65L62.75 41.65C63.18 41.65 63.53 41.3 63.53 40.87C63.53 40.44 63.18 40.09 62.75 40.09Z" fill="#3A98B2" fill-opacity="1.000000" fill-rule="nonzero"/>
		<path id="Vector" d="M68.14 50.7L63.45 40.54C63.27 40.15 62.81 39.98 62.42 40.16C62.03 40.34 61.86 40.81 62.04 41.2L66.72 51.35C66.86 51.64 67.14 51.81 67.43 51.81C67.54 51.81 67.65 51.79 67.76 51.74C68.15 51.56 68.32 51.09 68.14 50.7Z" fill="#3A98B2" fill-opacity="1.000000" fill-rule="nonzero"/>
		<path id="Vector" d="M21.34 59.62C20.91 59.62 20.56 59.97 20.56 60.4L20.56 63.58C20.56 64.01 20.91 64.36 21.34 64.36C21.77 64.36 22.12 64.01 22.12 63.58L22.12 60.4C22.12 59.97 21.77 59.62 21.34 59.62Z" fill="#3A98B2" fill-opacity="1.000000" fill-rule="nonzero"/>
		<path id="Vector" d="M19.78 49.46C19.34 49.46 19 49.81 19 50.25L19 60.4C19 60.83 19.34 61.18 19.78 61.18C20.21 61.18 20.56 60.83 20.56 60.4L20.56 50.25C20.56 49.81 20.21 49.46 19.78 49.46Z" fill="#3A98B2" fill-opacity="1.000000" fill-rule="nonzero"/>
		<path id="Vector" d="M51.03 49.46L19.78 49.46C19.34 49.46 19 49.81 19 50.25C19 50.68 19.34 51.03 19.78 51.03L51.03 51.03C51.46 51.03 51.81 50.68 51.81 50.25C51.81 49.81 51.46 49.46 51.03 49.46Z" fill="#3A98B2" fill-opacity="1.000000" fill-rule="nonzero"/>
		<path id="Vector" d="M23.68 59.62L19.78 59.62C19.34 59.62 19 59.97 19 60.4C19 60.83 19.34 61.18 19.78 61.18L23.68 61.18C24.11 61.18 24.46 60.83 24.46 60.4C24.46 59.97 24.11 59.62 23.68 59.62Z" fill="#3A98B2" fill-opacity="1.000000" fill-rule="nonzero"/>
		<path id="Vector" d="M31.5 58.06C28.48 58.06 26.03 60.51 26.03 63.53C26.03 66.54 28.48 69 31.5 69C34.51 69 36.96 66.54 36.96 63.53C36.96 60.51 34.51 58.06 31.5 58.06ZM31.5 67.43C29.34 67.43 27.59 65.68 27.59 63.53C27.59 61.37 29.34 59.62 31.5 59.62C33.65 59.62 35.4 61.37 35.4 63.53C35.4 65.68 33.65 67.43 31.5 67.43Z" fill="#3A98B2" fill-opacity="1.000000" fill-rule="nonzero"/>
		<path id="Vector" d="M31.5 61.18C30.2 61.18 29.15 62.23 29.15 63.53C29.15 64.82 30.2 65.87 31.5 65.87C32.79 65.87 33.84 64.82 33.84 63.53C33.84 62.23 32.79 61.18 31.5 61.18ZM31.5 64.31C31.06 64.31 30.71 63.96 30.71 63.53C30.71 63.1 31.06 62.75 31.5 62.75C31.93 62.75 32.28 63.1 32.28 63.53C32.28 63.96 31.93 64.31 31.5 64.31Z" fill="#3A98B2" fill-opacity="1.000000" fill-rule="nonzero"/>
		<path id="Vector" d="M57.28 61.18C55.98 61.18 54.93 62.23 54.93 63.53C54.93 64.82 55.98 65.87 57.28 65.87C58.57 65.87 59.62 64.82 59.62 63.53C59.62 62.23 58.57 61.18 57.28 61.18ZM57.28 64.31C56.85 64.31 56.5 63.96 56.5 63.53C56.5 63.1 56.85 62.75 57.28 62.75C57.71 62.75 58.06 63.1 58.06 63.53C58.06 63.96 57.71 64.31 57.28 64.31Z" fill="#3A98B2" fill-opacity="1.000000" fill-rule="nonzero"/>
		<path id="Vector" d="M57.28 58.06C54.26 58.06 51.81 60.51 51.81 63.53C51.81 66.54 54.26 69 57.28 69C60.29 69 62.75 66.54 62.75 63.53C62.75 60.51 60.29 58.06 57.28 58.06ZM57.28 67.43C55.12 67.43 53.37 65.68 53.37 63.53C53.37 61.37 55.12 59.62 57.28 59.62C59.43 59.62 61.18 61.37 61.18 63.53C61.18 65.68 59.43 67.43 57.28 67.43Z" fill="#3A98B2" fill-opacity="1.000000" fill-rule="nonzero"/>
		<path id="Vector" d="M52.61 62.75L36.18 62.75C35.75 62.75 35.4 63.09 35.4 63.53C35.4 63.96 35.75 64.31 36.18 64.31L52.61 64.31C53.04 64.31 53.39 63.96 53.39 63.53C53.39 63.09 53.04 62.75 52.61 62.75Z" fill="#3A98B2" fill-opacity="1.000000" fill-rule="nonzero"/>
		<path id="Vector" d="M68.21 62.75L61.96 62.75C61.53 62.75 61.18 63.09 61.18 63.53C61.18 63.96 61.53 64.31 61.96 64.31L68.21 64.31C68.65 64.31 69 63.96 69 63.53C69 63.09 68.65 62.75 68.21 62.75Z" fill="#3A98B2" fill-opacity="1.000000" fill-rule="nonzero"/>
		<path id="Vector" d="M67.43 50.25L58.06 50.25C57.63 50.25 57.28 50.59 57.28 51.03C57.28 51.46 57.63 51.81 58.06 51.81L67.43 51.81C67.86 51.81 68.21 51.46 68.21 51.03C68.21 50.59 67.86 50.25 67.43 50.25Z" fill="#3A98B2" fill-opacity="1.000000" fill-rule="nonzero"/>
		<path id="Vector" d="M58.06 50.25C56.77 50.25 55.71 49.19 55.71 47.9C55.71 47.47 55.36 47.12 54.93 47.12C54.5 47.12 54.15 47.47 54.15 47.9C54.15 50.06 55.9 51.81 58.06 51.81C58.49 51.81 58.84 51.46 58.84 51.03C58.84 50.59 58.49 50.25 58.06 50.25Z" fill="#3A98B2" fill-opacity="1.000000" fill-rule="nonzero"/>
		<path id="Vector" d="M54.93 40.09C54.5 40.09 54.15 40.44 54.15 40.87L54.15 47.9C54.15 48.33 54.5 48.68 54.93 48.68C55.36 48.68 55.71 48.33 55.71 47.9L55.71 40.87C55.71 40.44 55.36 40.09 54.93 40.09Z" fill="#3A98B2" fill-opacity="1.000000" fill-rule="nonzero"/>
		<path id="Vector" d="M53.37 30.71C52.94 30.71 52.59 31.06 52.59 31.5L52.59 34.62C52.59 35.05 52.94 35.4 53.37 35.4C53.8 35.4 54.15 35.05 54.15 34.62L54.15 31.5C54.15 31.06 53.8 30.71 53.37 30.71Z" fill="#3A98B2" fill-opacity="1.000000" fill-rule="nonzero"/>
		<path id="Vector" d="M22.9 32.16C22.47 32.16 22.12 32.51 22.12 32.95L22.12 50.25C22.12 50.68 22.47 51.03 22.9 51.03C23.33 51.03 23.68 50.68 23.68 50.25L23.68 32.95C23.68 32.51 23.33 32.16 22.9 32.16Z" fill="#3A98B2" fill-opacity="1.000000" fill-rule="nonzero"/>
		<path id="Vector" d="M51.03 32.16C50.59 32.16 50.25 32.51 50.25 32.95L50.25 50.25C50.25 50.68 50.59 51.03 51.03 51.03C51.46 51.03 51.81 50.68 51.81 50.25L51.81 32.95C51.81 32.51 51.46 32.16 51.03 32.16Z" fill="#3A98B2" fill-opacity="1.000000" fill-rule="nonzero"/>
		<path id="Vector" d="M53.82 30.86L37.42 19.14C37.14 18.95 36.78 18.95 36.51 19.14L20.1 30.86C19.75 31.11 19.67 31.6 19.92 31.95C20.17 32.3 20.66 32.38 21.01 32.13L36.96 20.74L52.92 32.13C53.05 32.23 53.21 32.28 53.37 32.28C53.61 32.28 53.85 32.16 54 31.95C54.26 31.6 54.17 31.11 53.82 30.86Z" fill="#3A98B2" fill-opacity="1.000000" fill-rule="nonzero"/>
		<path id="Vector" d="M53.82 33.98L37.42 22.27C37.14 22.07 36.78 22.07 36.51 22.27L20.1 33.98C19.75 34.23 19.67 34.72 19.92 35.07C20.17 35.42 20.66 35.51 21.01 35.26L36.96 23.86L52.92 35.26C53.05 35.35 53.21 35.4 53.37 35.4C53.61 35.4 53.85 35.29 54 35.07C54.26 34.72 54.17 34.23 53.82 33.98Z" fill="#3A98B2" fill-opacity="1.000000" fill-rule="nonzero"/>
		<path id="Vector" d="M20.56 30.71C20.13 30.71 19.78 31.06 19.78 31.5L19.78 34.62C19.78 35.05 20.13 35.4 20.56 35.4C20.99 35.4 21.34 35.05 21.34 34.62L21.34 31.5C21.34 31.06 20.99 30.71 20.56 30.71Z" fill="#3A98B2" fill-opacity="1.000000" fill-rule="nonzero"/>
		<path id="Vector" d="M39.31 40.09C38.88 40.09 38.53 40.44 38.53 40.87L38.53 50.25C38.53 50.68 38.88 51.03 39.31 51.03C39.74 51.03 40.09 50.68 40.09 50.25L40.09 40.87C40.09 40.44 39.74 40.09 39.31 40.09Z" fill="#3A98B2" fill-opacity="1.000000" fill-rule="nonzero"/>
		<path id="Vector" d="M39.31 40.09L34.62 40.09C34.19 40.09 33.84 40.44 33.84 40.87C33.84 41.3 34.19 41.65 34.62 41.65L39.31 41.65C39.74 41.65 40.09 41.3 40.09 40.87C40.09 40.44 39.74 40.09 39.31 40.09Z" fill="#3A98B2" fill-opacity="1.000000" fill-rule="nonzero"/>
		<path id="Vector" d="M34.62 40.09C34.19 40.09 33.84 40.44 33.84 40.87L33.84 50.25C33.84 50.68 34.19 51.03 34.62 51.03C35.05 51.03 35.4 50.68 35.4 50.25L35.4 40.87C35.4 40.44 35.05 40.09 34.62 40.09Z" fill="#3A98B2" fill-opacity="1.000000" fill-rule="nonzero"/>
		<path id="Vector" d="M31.5 36.18L26.03 36.18C25.59 36.18 25.25 36.53 25.25 36.96L25.25 42.43C25.25 42.86 25.59 43.21 26.03 43.21L31.5 43.21C31.93 43.21 32.28 42.86 32.28 42.43L32.28 36.96C32.28 36.53 31.93 36.18 31.5 36.18ZM30.71 41.65L26.81 41.65L26.81 37.75L30.71 37.75L30.71 41.65Z" fill="#3A98B2" fill-opacity="1.000000" fill-rule="nonzero"/>
		<path id="Vector" d="M47.9 36.18L42.43 36.18C42 36.18 41.65 36.53 41.65 36.96L41.65 42.43C41.65 42.86 42 43.21 42.43 43.21L47.9 43.21C48.33 43.21 48.68 42.86 48.68 42.43L48.68 36.96C48.68 36.53 48.33 36.18 47.9 36.18ZM47.12 41.65L43.21 41.65L43.21 37.75L47.12 37.75L47.12 41.65Z" fill="#3A98B2" fill-opacity="1.000000" fill-rule="nonzero"/>
		<path id="Vector" d="M36.96 29.15C35.24 29.15 33.84 30.55 33.84 32.28C33.84 34 35.24 35.4 36.96 35.4C38.69 35.4 40.09 34 40.09 32.28C40.09 30.55 38.69 29.15 36.96 29.15ZM36.96 33.84C36.1 33.84 35.4 33.14 35.4 32.28C35.4 31.41 36.1 30.71 36.96 30.71C37.83 30.71 38.53 31.41 38.53 32.28C38.53 33.14 37.83 33.84 36.96 33.84Z" fill="#3A98B2" fill-opacity="1.000000" fill-rule="nonzero"/>
	</g>
	<g opacity="0.300000">
		<circle id="Ellipse 3" cx="44.000000" cy="44.000000" r="44.000000" fill="#ABD2D9" fill-opacity="1.000000"/>
	</g>
</svg>
