<svg width="88.000000" height="88.000000" viewBox="0 0 88 88" fill="none" xmlns="http://www.w3.org/2000/svg" xmlns:xlink="http://www.w3.org/1999/xlink">
	<desc>
			Created with Pixso.
	</desc>
	<defs>
		<clipPath id="clip1_959">
			<rect id="Frame 3" width="52.000000" height="52.000000" transform="translate(18.000000 18.000000)" fill="white" fill-opacity="0"/>
		</clipPath>
	</defs>
	<g opacity="0.300000">
		<circle id="Ellipse 4" cx="44.000000" cy="44.000000" r="44.000000" fill="#ABD2D9" fill-opacity="1.000000"/>
	</g>
	<g clip-path="url(#clip1_959)">
		<path id="path56" d="M67.08 49.61C67.08 51.38 65.64 52.83 63.88 52.83L28.48 52.83C28.47 52.83 28.47 52.83 28.47 52.83L24.11 52.83C22.35 52.83 20.91 51.38 20.91 49.61L20.91 37.32C20.91 36.75 21.37 36.28 21.94 36.28L24.06 36.28C24.71 36.28 25.09 36.9 25.09 37.96L25.09 43.45L25.09 47.11C25.09 47.58 26.03 48.26 26.87 48.26L61.12 48.26C61.96 48.26 62.9 47.58 62.9 47.11L62.9 43.45L62.9 37.96C62.9 36.9 63.28 36.28 63.93 36.28L66.05 36.28C66.62 36.28 67.08 36.75 67.08 37.32L67.08 49.61ZM63.62 57.42C63.46 57.6 63.23 57.71 62.97 57.71C62.67 57.71 62.39 57.55 62.25 57.28L60.24 53.67L63.33 53.67L63.81 56.75C63.85 56.99 63.78 57.23 63.62 57.42ZM25.74 57.28C25.6 57.55 25.32 57.71 25 57.71C24.76 57.71 24.53 57.6 24.37 57.42C24.21 57.23 24.14 56.99 24.18 56.75L24.66 53.67L27.75 53.67L25.74 57.28ZM25.93 33.35C25.93 32.23 26.83 31.32 27.94 31.32L35.4 31.32C36.51 31.32 37.41 32.23 37.41 33.35L37.41 43.02L25.93 43.02L25.93 37.96L25.93 33.35ZM40.27 31.32L47.72 31.32C48.83 31.32 49.74 32.23 49.74 33.35L49.74 43.02L38.25 43.02L38.25 33.35C38.25 32.23 39.16 31.32 40.27 31.32ZM52.59 31.32L60.05 31.32C61.16 31.32 62.06 32.23 62.06 33.35L62.06 37.96L62.06 43.02L50.58 43.02L50.58 33.35C50.58 32.23 51.48 31.32 52.59 31.32ZM25.93 43.87L62.06 43.87L62.06 46.99C61.93 47.13 61.55 47.42 61.12 47.42L26.87 47.42C26.44 47.42 26.06 47.13 25.93 46.99L25.93 43.87ZM66.05 35.44L63.93 35.44C63.57 35.44 63.21 35.54 62.9 35.77L62.9 33.35C62.9 31.76 61.62 30.48 60.05 30.48L52.59 30.48C51.56 30.48 50.66 31.03 50.16 31.85C49.66 31.03 48.75 30.48 47.72 30.48L40.27 30.48C39.24 30.48 38.33 31.03 37.83 31.85C37.33 31.03 36.43 30.48 35.4 30.48L27.94 30.48C26.37 30.48 25.09 31.76 25.09 33.35L25.09 35.77C24.78 35.54 24.42 35.44 24.06 35.44L21.94 35.44C20.91 35.44 20.08 36.28 20.08 37.32L20.08 49.61C20.08 51.75 21.73 53.51 23.82 53.66L23.35 56.61C23.28 57.1 23.42 57.59 23.73 57.97C24.05 58.34 24.51 58.56 25.02 58.56C25.62 58.56 26.18 58.23 26.47 57.7L28.71 53.67L59.28 53.67L61.52 57.7C61.81 58.23 62.37 58.56 62.99 58.56C63.48 58.56 63.94 58.34 64.26 57.97C64.57 57.59 64.71 57.1 64.64 56.61L64.17 53.66C66.26 53.51 67.92 51.75 67.92 49.61L67.92 37.32C67.92 36.28 67.08 35.44 66.05 35.44Z" fill="#3A98B2" fill-opacity="1.000000" fill-rule="nonzero"/>
	</g>
</svg>
