<svg id="logo-svg" width="193.000000" height="51.000000" viewBox="0 0 193 51" fill="none" xmlns="http://www.w3.org/2000/svg" xmlns:xlink="http://www.w3.org/1999/xlink">
	<desc>
			Created with Pixso.
	</desc>
	<defs/>
	<path id="path22" d="M15.01 14.74C15.01 15.69 15.01 16.64 15.01 17.59C15.01 17.89 15.02 17.89 15.29 17.89C16.3 17.9 17.3 17.89 18.3 17.9C18.51 17.9 18.58 17.83 18.58 17.62C18.57 15.74 18.58 13.85 18.57 11.97C18.57 11.69 18.56 11.68 18.27 11.68C17.28 11.68 16.29 11.68 15.3 11.68C15.02 11.68 15.01 11.69 15.01 11.98C15.01 12.9 15.01 13.82 15.01 14.74ZM7.03 11.58C7.58 11.08 8.13 10.58 8.68 10.08C11.26 7.76 13.84 5.43 16.41 3.11C16.81 2.75 16.81 2.75 17.21 3.11C17.85 3.68 18.48 4.25 19.11 4.83C19.2 4.91 19.28 5 19.43 5.06C19.51 4.81 19.45 4.56 19.47 4.32C19.49 4.1 19.37 3.84 19.53 3.7C19.67 3.58 19.92 3.66 20.13 3.66C20.69 3.65 21.26 3.66 21.83 3.66C22.22 3.66 22.22 3.66 22.22 4.06C22.22 5.08 22.24 6.1 22.21 7.12C22.2 7.49 22.33 7.74 22.61 7.98C23.86 9.08 25.1 10.2 26.34 11.32C26.44 11.4 26.52 11.51 26.66 11.65L25.58 11.65C25.29 11.65 25.01 11.65 24.73 11.65C24.41 11.66 24.28 11.77 24.22 12.07C24.2 12.2 24.2 12.34 24.21 12.47C24.21 13.83 24.2 15.18 24.23 16.54C24.24 17.06 24.02 17.37 23.56 17.58C21.51 18.56 19.48 19.58 17.46 20.62C17.01 20.86 16.61 20.85 16.16 20.62C14.13 19.58 12.1 18.56 10.05 17.59C9.58 17.36 9.37 17.02 9.38 16.5C9.4 15.13 9.4 13.76 9.4 12.39C9.4 12.29 9.4 12.2 9.39 12.1C9.36 11.77 9.23 11.66 8.89 11.65C8.29 11.65 7.68 11.65 7.07 11.65C7.06 11.63 7.05 11.6 7.03 11.58Z" fill="#ABD2D9" fill-opacity="1.000000" fill-rule="evenodd"/>
	<path id="path26" d="M88.42 39.65C88.13 39.64 87.89 39.68 87.67 39.8C87.25 40.02 87.08 40.5 87.29 40.93C87.49 41.33 87.75 41.69 88.09 41.99C88.33 42.21 88.43 42.22 88.69 42.03C89.04 41.79 89.32 41.48 89.54 41.12C89.83 40.64 89.68 40.11 89.2 39.84C88.94 39.7 88.67 39.64 88.42 39.65ZM87.59 48.77C88.26 48.81 88.86 48.52 89.42 48.17C89.78 47.95 89.8 47.8 89.54 47.49C88.93 46.76 88.32 46.04 87.7 45.32C87.38 44.95 87.2 44.92 86.79 45.19C86.12 45.64 85.75 46.28 85.7 47.09C85.67 47.8 86.04 48.34 86.69 48.62C86.97 48.74 87.26 48.78 87.59 48.77ZM91.36 45.84C91.51 45.59 91.64 45.38 91.77 45.16C92.02 44.75 92.38 44.6 92.84 44.69C93.19 44.75 93.53 44.85 93.85 44.99C94.12 45.1 94.18 45.24 94.09 45.51C93.93 45.99 93.8 46.49 93.51 46.93C93.17 47.44 93.24 47.78 93.72 48.15C93.98 48.34 94.27 48.51 94.53 48.7C94.91 48.98 94.95 49.16 94.7 49.56C94.51 49.85 94.31 50.15 94.08 50.41C93.67 50.9 93.27 50.92 92.78 50.52C92.67 50.44 92.58 50.34 92.48 50.25C92.01 49.83 91.48 49.72 90.9 49.96C90.68 50.05 90.48 50.15 90.27 50.26C88.43 51.2 86.59 51.09 84.82 50.14C82.78 49.06 82.45 46.44 84.06 44.69C84.3 44.43 84.57 44.19 84.86 44C85.08 43.85 85.31 43.7 85.54 43.55C85.97 43.28 85.93 43.34 85.67 42.97C85.54 42.78 85.4 42.59 85.28 42.4C84.97 41.9 84.75 41.36 84.7 40.77C84.64 39.95 84.92 39.28 85.54 38.75C86.07 38.3 86.72 38.1 87.39 37.97C88.56 37.74 89.68 37.85 90.71 38.5C91.58 39.05 92.05 39.83 91.98 40.88C91.92 41.64 91.56 42.25 90.99 42.73C90.7 42.97 90.38 43.18 90.08 43.41C89.81 43.63 89.8 43.68 89.93 44C89.99 44.14 90.06 44.27 90.14 44.39C90.48 44.92 90.92 45.36 91.36 45.84Z" fill="#F2B91D" fill-opacity="1.000000" fill-rule="evenodd"/>
	<path id="path30" d="M16.84 21.84C19.89 20.31 22.91 18.8 25.87 17.31C25.95 17.23 25.94 17.21 25.91 17.2C25.3 16.93 25.1 16.44 25.14 15.81C25.19 14.99 25.17 14.16 25.16 13.33C25.16 13.25 25.15 13.17 25.15 13.09C25.16 12.64 25.33 12.5 25.76 12.58C26.21 12.66 26.62 12.79 27.03 13C28.24 13.63 29.47 14.23 30.76 14.88C29.21 15.67 27.71 16.43 26.16 17.22C27.7 18 29.19 18.75 30.7 19.51C30.55 19.67 30.38 19.73 30.23 19.81C28.26 20.8 26.29 21.79 24.32 22.78C23.6 23.14 22.89 23.49 22.18 23.87C21.7 24.13 21.24 24.12 20.76 23.87C19.59 23.26 18.41 22.68 17.24 22.09C17.12 22.03 16.99 21.98 16.84 21.84Z" fill="#F2B91D" fill-opacity="1.000000" fill-rule="evenodd"/>
	<path id="path34" d="M2.84 19.55C4.41 18.76 5.91 18 7.46 17.22C5.91 16.43 4.4 15.67 2.85 14.89C4.41 14.1 5.88 13.31 7.41 12.62C7.48 12.58 7.56 12.56 7.64 12.54C8.1 12.42 8.34 12.57 8.43 13.03C8.43 13.07 8.44 13.11 8.44 13.15C8.5 14.24 8.48 15.32 8.46 16.4C8.45 16.83 8.33 16.93 7.77 17.32C10.74 18.81 13.68 20.29 16.65 21.78C16.57 22 16.38 22.05 16.22 22.13C15.52 22.47 14.83 22.8 14.13 23.13C13.79 23.29 13.43 23.44 13.1 23.62C12.42 23.99 11.75 23.91 11.07 23.61C9.56 22.93 8.12 22.12 6.64 21.39C5.49 20.82 4.33 20.27 3.17 19.72C3.08 19.68 3 19.63 2.84 19.55Z" fill="#F2B91D" fill-opacity="1.000000" fill-rule="evenodd"/>
	<path id="path38" d="M16.5 31.01C16.34 30.93 16.22 30.88 16.1 30.82C13.45 29.5 10.8 28.17 8.15 26.85C8.07 26.81 8 26.77 7.93 26.74C7.62 26.6 7.49 26.37 7.49 26.03C7.5 25.41 7.5 24.78 7.5 24.16C7.5 23.59 7.5 23.03 7.5 22.46C7.65 22.42 7.73 22.5 7.82 22.55C9.04 23.15 10.25 23.74 11.45 24.36C11.95 24.62 12.38 24.61 12.87 24.35C13.95 23.79 15.05 23.26 16.14 22.72C16.24 22.66 16.34 22.59 16.5 22.58L16.5 31.01Z" fill="#F2B91D" fill-opacity="1.000000" fill-rule="evenodd"/>
	<path id="path42" d="M17.14 22.61C17.29 22.59 17.39 22.67 17.49 22.72C18.59 23.27 19.7 23.8 20.79 24.37C21.26 24.61 21.68 24.61 22.14 24.37C23.33 23.76 24.53 23.17 25.73 22.57C25.84 22.52 25.95 22.47 26.06 22.42C26.17 22.5 26.13 22.6 26.13 22.69C26.13 23.78 26.13 24.88 26.14 25.98C26.14 26.36 25.98 26.6 25.63 26.77C23.4 27.88 21.18 28.99 18.95 30.1C18.48 30.34 18.01 30.58 17.54 30.81C17.42 30.87 17.31 30.97 17.14 30.96L17.14 22.61Z" fill="#F2B91D" fill-opacity="1.000000" fill-rule="evenodd"/>
	<path id="path46" d="M17.14 22.61L17.14 30.96C17.31 30.97 17.42 30.87 17.54 30.81C18.01 30.58 18.48 30.34 18.95 30.1C21.18 28.99 23.4 27.88 25.63 26.77C25.98 26.6 26.14 26.36 26.14 25.98C26.13 24.88 26.13 23.78 26.13 22.69C26.13 22.6 26.17 22.5 26.06 22.42C25.95 22.47 25.84 22.52 25.73 22.57C24.53 23.17 23.33 23.76 22.14 24.37C21.68 24.61 21.26 24.61 20.79 24.37C19.7 23.8 18.59 23.27 17.49 22.72C17.39 22.67 17.29 22.59 17.14 22.61ZM16.5 31.01L16.5 22.58C16.34 22.59 16.24 22.66 16.14 22.72C15.05 23.26 13.95 23.79 12.87 24.35C12.38 24.61 11.95 24.62 11.45 24.36C10.25 23.74 9.04 23.15 7.82 22.55C7.73 22.5 7.65 22.42 7.5 22.46C7.5 23.03 7.5 23.59 7.5 24.16C7.5 24.78 7.5 25.41 7.49 26.03C7.49 26.37 7.62 26.6 7.93 26.74C8 26.77 8.07 26.81 8.15 26.85C10.8 28.18 13.45 29.5 16.1 30.82C16.22 30.88 16.34 30.93 16.5 31.01ZM2.84 19.55C3 19.63 3.08 19.68 3.17 19.72C4.33 20.27 5.49 20.82 6.64 21.39C8.12 22.12 9.56 22.93 11.07 23.61C11.75 23.91 12.42 23.99 13.1 23.62C13.43 23.44 13.79 23.29 14.13 23.13C14.83 22.8 15.52 22.47 16.22 22.13C16.37 22.05 16.57 22 16.65 21.78C13.68 20.29 10.73 18.81 7.77 17.32C8.33 16.93 8.45 16.83 8.46 16.4C8.48 15.32 8.5 14.24 8.44 13.15C8.44 13.11 8.43 13.07 8.43 13.03C8.34 12.57 8.1 12.42 7.64 12.54C7.56 12.56 7.48 12.58 7.41 12.62C5.88 13.31 4.41 14.1 2.85 14.89C4.4 15.67 5.91 16.43 7.46 17.22C5.91 18 4.41 18.76 2.84 19.55ZM16.84 21.84C16.99 21.99 17.12 22.03 17.24 22.09C18.41 22.68 19.59 23.26 20.75 23.87C21.24 24.12 21.7 24.13 22.18 23.87C22.89 23.49 23.6 23.14 24.32 22.78C26.29 21.79 28.26 20.8 30.23 19.81C30.38 19.73 30.55 19.67 30.7 19.51C29.19 18.75 27.7 18 26.16 17.22C27.71 16.43 29.21 15.67 30.76 14.88C29.47 14.23 28.24 13.63 27.03 13C26.62 12.79 26.21 12.66 25.76 12.58C25.33 12.5 25.16 12.64 25.15 13.09C25.15 13.17 25.16 13.25 25.16 13.34C25.17 14.16 25.19 14.99 25.14 15.82C25.09 16.44 25.3 16.93 25.91 17.2C25.94 17.21 25.95 17.24 25.87 17.31C22.91 18.8 19.89 20.32 16.84 21.84ZM7.03 11.58C7.05 11.6 7.06 11.63 7.07 11.65C7.68 11.65 8.29 11.65 8.89 11.65C9.23 11.66 9.36 11.77 9.39 12.1C9.4 12.2 9.4 12.29 9.4 12.39C9.4 13.76 9.4 15.13 9.38 16.5C9.37 17.02 9.58 17.36 10.05 17.59C12.1 18.56 14.13 19.58 16.16 20.62C16.61 20.85 17.01 20.86 17.46 20.62C19.48 19.58 21.51 18.56 23.57 17.58C24.02 17.37 24.24 17.06 24.23 16.54C24.2 15.18 24.21 13.83 24.21 12.47C24.2 12.34 24.2 12.2 24.22 12.07C24.28 11.77 24.41 11.66 24.73 11.65C25.01 11.65 25.3 11.65 25.58 11.65L26.66 11.65C26.52 11.51 26.44 11.4 26.34 11.32C25.1 10.2 23.86 9.08 22.61 7.98C22.33 7.74 22.2 7.49 22.21 7.12C22.24 6.1 22.22 5.08 22.22 4.06C22.22 3.66 22.22 3.66 21.83 3.66C21.26 3.66 20.69 3.65 20.13 3.66C19.92 3.66 19.67 3.58 19.53 3.7C19.37 3.84 19.49 4.11 19.47 4.32C19.45 4.56 19.51 4.81 19.43 5.06C19.28 5 19.2 4.91 19.11 4.83C18.48 4.26 17.85 3.68 17.21 3.11C16.81 2.75 16.81 2.75 16.41 3.11C13.84 5.43 11.26 7.76 8.68 10.08C8.13 10.58 7.58 11.08 7.03 11.58ZM-0.12 16.89C-0.07 7.54 7.59 0.09 16.59 0C25.93 -0.1 33.75 7.6 33.74 16.91C33.74 25.74 26.54 33.83 16.86 33.84C7.47 33.85 -0.06 26.28 -0.12 16.89Z" fill="#142B35" fill-opacity="1.000000" fill-rule="evenodd"/>
	<path id="path50" d="M143.85 18.81C143.92 18.65 143.89 18.52 143.89 18.38C143.9 15.23 143.9 12.07 143.9 8.91C143.9 8.41 143.89 7.91 143.89 7.41C143.89 6.85 144.04 6.7 144.58 6.69C146.08 6.69 147.59 6.69 149.09 6.69C149.19 6.69 149.28 6.69 149.38 6.71C149.64 6.76 149.75 6.88 149.76 7.2C149.78 7.73 149.77 8.26 149.77 8.79C149.77 8.98 149.76 9.16 149.76 9.35C149.76 14.75 149.76 20.14 149.76 25.54C149.76 26.49 149.77 27.44 149.77 28.39C149.77 28.49 149.78 28.6 149.77 28.71C149.74 29.12 149.62 29.25 149.21 29.25C148.44 29.26 147.67 29.24 146.9 29.24C146.22 29.24 145.54 29.22 144.86 29.27C144.21 29.32 143.77 29.09 143.43 28.52C141.34 25.01 139.24 21.53 137.14 18.03C137 17.8 136.88 17.56 136.6 17.41C136.53 17.57 136.56 17.72 136.56 17.86C136.56 21.29 136.57 24.71 136.57 28.14C136.57 28.25 136.56 28.36 136.57 28.47C136.59 28.96 136.54 29.31 135.75 29.27C134.66 29.22 133.58 29.23 132.5 29.24C132.13 29.24 131.77 29.26 131.4 29.27C131.28 29.27 131.16 29.25 131.04 29.24C130.81 29.21 130.71 29.07 130.69 28.86C130.68 28.71 130.68 28.56 130.68 28.41C130.68 23.84 130.68 19.27 130.68 14.71C130.68 12.29 130.68 9.88 130.68 7.47C130.67 6.78 130.77 6.69 131.45 6.7C132.81 6.71 134.18 6.75 135.55 6.68C136.22 6.65 136.65 6.93 136.98 7.49C138 9.21 139.03 10.93 140.06 12.65C141.23 14.6 142.4 16.55 143.57 18.49C143.64 18.6 143.67 18.75 143.85 18.81Z" fill="#142B35" fill-opacity="1.000000" fill-rule="evenodd"/>
	<path id="path54" d="M175.28 17.97C175.28 14.52 175.28 11.06 175.29 7.6C175.29 6.82 175.42 6.69 176.21 6.69C181.12 6.69 186.03 6.69 190.93 6.69C191.77 6.69 191.91 6.82 191.87 7.66C191.82 8.64 191.81 9.61 191.87 10.59C191.87 10.64 191.87 10.7 191.88 10.75C191.89 11.39 191.73 11.56 191.1 11.56C190.57 11.56 190.05 11.55 189.52 11.55C187.15 11.55 184.77 11.54 182.4 11.54C182.24 11.54 182.07 11.54 181.92 11.57C181.67 11.61 181.57 11.72 181.54 11.97C181.53 12.07 181.53 12.16 181.53 12.26C181.57 12.95 181.57 13.64 181.54 14.33C181.53 14.41 181.53 14.49 181.53 14.57C181.55 14.92 181.67 15.07 182.03 15.08C182.49 15.1 182.95 15.09 183.41 15.09C185.71 15.08 188.02 15.08 190.32 15.07C190.44 15.07 190.57 15.08 190.69 15.11C190.92 15.18 191.06 15.33 191.07 15.58C191.08 15.75 191.08 15.93 191.07 16.1C191.04 17.03 191.05 17.95 191.07 18.87C191.08 19 191.09 19.14 191.07 19.28C191.05 19.56 190.96 19.65 190.69 19.73C190.46 19.79 190.23 19.77 190 19.77C188.17 19.77 186.34 19.76 184.51 19.75C183.81 19.75 183.11 19.73 182.4 19.72C182.35 19.72 182.29 19.72 182.24 19.72C181.67 19.75 181.52 19.89 181.54 20.47C181.56 21.46 181.58 22.45 181.53 23.43C181.5 23.96 181.65 24.12 182.18 24.14C182.54 24.16 182.91 24.13 183.27 24.13C185.9 24.12 188.53 24.12 191.16 24.11C191.99 24.11 192.14 24.27 192.1 25.09C192.05 26.16 192.05 27.23 192.1 28.3C192.1 28.42 192.1 28.54 192.1 28.66C192.08 29.1 191.96 29.25 191.51 29.27C191.04 29.29 190.56 29.27 190.09 29.27C189.97 29.27 189.84 29.25 189.72 29.25C186.71 29.25 183.7 29.24 180.69 29.24C179.19 29.24 177.69 29.27 176.18 29.27C175.4 29.28 175.29 29.16 175.29 28.38C175.28 24.91 175.28 21.44 175.28 17.97Z" fill="#142B35" fill-opacity="1.000000" fill-rule="evenodd"/>
	<path id="path58" d="M48.57 12.85C48.54 12.85 48.51 12.85 48.48 12.84C48.35 13.35 48.21 13.85 48.07 14.36C47.56 16.26 47.05 18.17 46.54 20.08C46.41 20.55 46.46 20.62 46.96 20.62C48.01 20.62 49.05 20.6 50.09 20.63C50.53 20.64 50.63 20.51 50.54 20.09C50.51 19.98 50.48 19.88 50.45 19.78C50.21 18.93 49.97 18.08 49.74 17.24C49.35 15.78 48.96 14.31 48.57 12.85ZM37.77 29.2C38.06 28.32 38.34 27.46 38.63 26.6C40.71 20.29 42.79 13.99 44.87 7.68C44.9 7.58 44.94 7.48 44.98 7.37C45.16 6.9 45.49 6.67 46 6.68C46.91 6.7 47.82 6.72 48.73 6.72C49.54 6.72 50.35 6.7 51.17 6.69C51.87 6.69 52.03 6.8 52.25 7.48C53.04 9.88 53.83 12.29 54.62 14.69C56.13 19.24 57.64 23.8 59.16 28.36C59.18 28.42 59.2 28.49 59.22 28.55C59.39 29.13 59.27 29.29 58.65 29.27C56.99 29.22 55.32 29.22 53.65 29.27C53.08 29.29 52.89 29.14 52.74 28.57C52.53 27.75 52.31 26.92 52.1 26.1C51.99 25.69 51.84 25.57 51.4 25.57C50.12 25.57 48.83 25.58 47.54 25.58C46.92 25.58 46.29 25.57 45.67 25.57C45.15 25.57 45.01 25.69 44.88 26.19C44.67 27.03 44.45 27.87 44.23 28.71C44.12 29.14 43.99 29.25 43.55 29.25C41.67 29.25 39.78 29.24 37.9 29.24C37.87 29.24 37.85 29.22 37.77 29.2Z" fill="#142B35" fill-opacity="1.000000" fill-rule="evenodd"/>
	<path id="path62" d="M115.75 20.61C115.86 20.61 115.93 20.62 116 20.62C117.17 20.62 118.35 20.62 119.53 20.62C119.6 20.62 119.67 20.62 119.73 20.61C119.91 20.61 119.97 20.5 119.95 20.34C119.94 20.26 119.91 20.19 119.89 20.11C119.27 17.85 118.66 15.6 118.04 13.34C118 13.23 118.04 13.02 117.86 13.03C117.7 13.03 117.72 13.24 117.69 13.35C117.31 14.76 116.93 16.17 116.55 17.58C116.29 18.57 116.03 19.57 115.75 20.61ZM107.11 29.2C107.42 28.26 107.73 27.33 108.04 26.39C110.12 20.11 112.19 13.83 114.27 7.55C114.3 7.46 114.33 7.37 114.36 7.28C114.52 6.89 114.8 6.68 115.24 6.69C115.8 6.7 116.37 6.71 116.94 6.71C118.14 6.71 119.33 6.7 120.52 6.7C121.24 6.7 121.34 6.78 121.57 7.46C123.36 12.88 125.16 18.3 126.95 23.71C127.5 25.37 128.05 27.02 128.6 28.68C128.79 29.24 128.79 29.24 128.21 29.24C126.42 29.24 124.63 29.24 122.84 29.24C122.31 29.24 122.28 29.21 122.14 28.71C121.9 27.85 121.65 26.99 121.44 26.13C121.33 25.68 121.19 25.57 120.73 25.57C118.81 25.57 116.88 25.57 114.96 25.57C114.48 25.57 114.37 25.67 114.25 26.13C114.04 26.98 113.82 27.83 113.59 28.68C113.47 29.16 113.35 29.25 112.85 29.25C111.58 29.25 110.31 29.24 109.03 29.24C108.53 29.24 108.03 29.25 107.53 29.25C107.4 29.25 107.26 29.29 107.11 29.2Z" fill="#142B35" fill-opacity="1.000000" fill-rule="evenodd"/>
	<path id="path66" d="M159.26 17.87C159.27 19.26 159.32 20.48 159.67 21.66C159.87 22.36 160.18 23 160.71 23.51C161.25 24.03 161.9 24.31 162.65 24.35C163.09 24.37 163.54 24.37 163.98 24.28C164.74 24.13 165.33 23.73 165.77 23.11C166.17 22.56 166.44 21.94 166.67 21.3C166.75 21.06 166.82 20.81 166.92 20.57C167.07 20.22 167.26 20.12 167.63 20.22C168.06 20.34 168.49 20.49 168.91 20.63C169.93 20.98 170.95 21.34 171.97 21.69C172.34 21.82 172.42 21.93 172.34 22.29C171.93 24.01 171.28 25.61 170.12 26.98C168.94 28.35 167.46 29.17 165.68 29.47C164.39 29.7 163.1 29.78 161.8 29.62C160.67 29.49 159.56 29.25 158.5 28.8C156.92 28.12 155.73 26.98 154.87 25.5C154.05 24.07 153.55 22.53 153.25 20.93C152.66 17.84 152.97 14.83 154.11 11.91C155.23 9.03 157.32 7.29 160.32 6.62C162.35 6.17 164.37 6.18 166.39 6.73C168.35 7.28 169.83 8.45 170.88 10.18C171.39 11.03 171.77 11.94 172.09 12.88C172.22 13.3 172.16 13.42 171.74 13.52C170.25 13.88 168.77 14.25 167.3 14.66C167.26 14.67 167.22 14.67 167.18 14.68C166.82 14.76 166.68 14.68 166.6 14.32C166.44 13.66 166.1 13.09 165.64 12.6C164.92 11.84 164.01 11.56 162.99 11.62C161.38 11.7 160.44 12.66 159.83 14.04C159.54 14.71 159.43 15.42 159.34 16.13C159.26 16.76 159.23 17.4 159.26 17.87Z" fill="#142B35" fill-opacity="1.000000" fill-rule="evenodd"/>
	<path id="path70" d="M61.28 18.04C61.28 14.55 61.28 11.07 61.28 7.59C61.28 6.81 61.4 6.68 62.17 6.69C63.66 6.72 65.15 6.73 66.64 6.69C66.66 6.69 66.67 6.69 66.68 6.69C67.39 6.68 67.55 6.84 67.55 7.54C67.56 8.3 67.55 9.06 67.55 9.81C67.55 12.27 67.55 14.72 67.55 17.17C67.54 19.05 67.53 20.91 67.52 22.79C67.52 23.49 67.71 23.7 68.41 23.68C70.09 23.62 71.77 23.65 73.45 23.64C74.38 23.64 75.32 23.63 76.26 23.63C76.35 23.63 76.45 23.62 76.54 23.64C76.94 23.69 77.09 23.84 77.1 24.25C77.11 24.72 77.09 25.2 77.09 25.67C77.09 26.62 77.09 27.57 77.1 28.52C77.1 28.61 77.1 28.71 77.09 28.8C77.07 29.11 76.98 29.19 76.67 29.25C76.47 29.29 76.27 29.25 76.06 29.25C72.97 29.25 69.88 29.24 66.79 29.24C65.26 29.24 63.73 29.26 62.2 29.28C62.13 29.28 62.06 29.28 62 29.28C61.38 29.27 61.29 29.18 61.29 28.57C61.29 25.06 61.29 21.55 61.29 18.04L61.28 18.04Z" fill="#142B35" fill-opacity="1.000000" fill-rule="evenodd"/>
	<path id="path74" d="M79.83 18C79.83 14.87 79.83 11.74 79.82 8.61C79.82 8.2 79.8 7.8 79.82 7.39C79.84 6.85 80.01 6.68 80.55 6.69C82.13 6.72 83.72 6.72 85.3 6.69C85.83 6.68 86.02 6.87 86.03 7.39C86.03 7.99 86.02 8.59 86.02 9.18C86.02 13.26 86.02 17.34 86.02 21.42C86.02 21.92 86 22.43 86.01 22.93C86.03 23.46 86.19 23.62 86.72 23.67C86.97 23.69 87.23 23.66 87.49 23.66C89.1 23.66 90.71 23.65 92.33 23.64C93.13 23.64 93.93 23.64 94.73 23.63C94.81 23.63 94.89 23.62 94.97 23.63C95.42 23.66 95.58 23.81 95.57 24.27C95.55 25.73 95.56 27.2 95.57 28.66C95.57 29.1 95.43 29.24 94.99 29.27C94.62 29.29 94.26 29.28 93.89 29.27C90.92 29.22 87.95 29.24 84.99 29.24C83.55 29.24 82.11 29.27 80.68 29.27C79.91 29.28 79.81 29.17 79.81 28.41C79.82 25.73 79.83 23.04 79.83 20.36C79.84 19.57 79.83 18.79 79.83 18L79.83 18Z" fill="#142B35" fill-opacity="1.000000" fill-rule="evenodd"/>
	<path id="path78" d="M104.76 17.97C104.76 21.43 104.76 24.89 104.76 28.34C104.76 29.16 104.63 29.28 103.81 29.26C102.36 29.23 100.91 29.2 99.46 29.27C98.71 29.31 98.54 29.15 98.54 28.41C98.55 23.68 98.55 18.95 98.55 14.22C98.55 12.09 98.54 9.96 98.54 7.83C98.54 7.68 98.54 7.53 98.54 7.38C98.57 6.89 98.76 6.7 99.25 6.69C99.71 6.69 100.17 6.7 100.63 6.71C101.67 6.74 102.7 6.71 103.73 6.7C103.9 6.69 104.08 6.68 104.25 6.7C104.57 6.73 104.71 6.88 104.74 7.19C104.75 7.33 104.75 7.46 104.75 7.6C104.75 11.06 104.75 14.51 104.75 17.97L104.76 17.97Z" fill="#142B35" fill-opacity="1.000000" fill-rule="evenodd"/>
	<path id="path82" d="M11.22 46.22C11.4 46.08 11.43 45.87 11.48 45.68C12.09 43.45 12.7 41.22 13.3 38.98C13.52 38.14 13.6 38.08 14.47 38.1C15.23 38.12 15.98 38.11 16.74 38.09C17.32 38.08 17.47 38.21 17.48 38.79C17.49 39.51 17.47 40.23 17.47 40.95C17.46 43.46 17.46 45.96 17.46 48.47C17.46 48.91 17.46 49.34 17.44 49.77C17.42 50.42 17.21 50.61 16.57 50.62C16.23 50.63 15.89 50.63 15.55 50.62C15.11 50.6 14.98 50.46 14.98 50.01C14.98 47.45 14.99 44.89 14.99 42.32C14.99 42.19 14.99 42.06 14.99 41.9C14.87 42 14.86 42.12 14.82 42.23C14.12 44.45 13.56 46.71 12.97 48.96C12.88 49.31 12.79 49.67 12.65 50.01C12.48 50.42 12.17 50.62 11.74 50.62C11.38 50.63 11.03 50.63 10.68 50.62C10.27 50.61 9.99 50.41 9.82 50.04C9.66 49.68 9.57 49.3 9.47 48.92C8.88 46.7 8.32 44.47 7.61 42.28C7.58 42.16 7.54 42.05 7.5 41.92C7.38 42.04 7.44 42.17 7.44 42.29C7.43 44.85 7.44 47.42 7.44 49.98C7.44 50.47 7.31 50.6 6.82 50.62C6.45 50.63 6.09 50.63 5.72 50.62C5.21 50.6 5.01 50.43 4.94 49.93C4.91 49.73 4.92 49.52 4.92 49.32C4.91 46.12 4.91 42.92 4.91 39.72C4.91 39.41 4.9 39.09 4.9 38.78C4.91 38.22 5.05 38.08 5.61 38.09C6.49 38.11 7.37 38.11 8.25 38.09C8.75 38.08 8.93 38.2 9.07 38.7C9.34 39.69 9.6 40.68 9.88 41.67C10.25 43.01 10.63 44.35 11 45.7C11.05 45.88 11.12 46.06 11.22 46.22Z" fill="#142B35" fill-opacity="1.000000" fill-rule="evenodd"/>
	<path id="path86" d="M143.11 43.4L143.11 43.38C143.47 43.38 143.82 43.39 144.17 43.38C144.63 43.37 145.09 43.33 145.53 43.22C146.29 43.04 146.67 42.51 146.65 41.71C146.63 41 146.18 40.49 145.43 40.37C144.71 40.25 143.97 40.23 143.25 40.21C142.92 40.21 142.6 40.22 142.27 40.27C141.63 40.36 141.48 40.53 141.42 41.18C141.37 41.78 141.44 42.39 141.39 43C141.37 43.27 141.49 43.39 141.78 43.4C142.22 43.41 142.67 43.4 143.11 43.4ZM146.23 45.11C146.36 45.29 146.52 45.37 146.66 45.48C147.34 46.03 147.9 46.69 148.4 47.41C149.11 48.41 149.72 49.49 150.44 50.49C150.45 50.51 150.44 50.54 150.44 50.61L150.14 50.61C149.33 50.61 148.52 50.6 147.7 50.62C147.36 50.62 147.16 50.49 146.97 50.22C146.1 48.96 145.21 47.71 144.32 46.47C143.7 45.62 142.83 45.34 141.82 45.41C141.53 45.43 141.44 45.53 141.42 45.82C141.41 45.91 141.41 46.01 141.41 46.1C141.42 47.36 141.42 48.62 141.42 49.88C141.42 49.97 141.43 50.05 141.42 50.13C141.4 50.44 141.28 50.59 140.98 50.61C140.48 50.63 139.98 50.64 139.48 50.6C138.99 50.57 138.8 50.34 138.75 49.83C138.72 49.5 138.7 49.16 138.7 48.82C138.69 45.93 138.7 43.04 138.7 40.16C138.7 39.74 138.69 39.32 138.69 38.9C138.69 38.79 138.69 38.68 138.7 38.57C138.76 38.23 138.89 38.1 139.24 38.09C139.5 38.09 139.76 38.1 140.02 38.1C141.45 38.1 142.89 38.09 144.33 38.1C145.17 38.1 146.01 38.14 146.83 38.33C148.96 38.84 150.04 41.02 149.16 43.04C148.85 43.75 148.31 44.24 147.63 44.6C147.19 44.83 146.72 44.96 146.23 45.11Z" fill="#142B35" fill-opacity="1.000000" fill-rule="evenodd"/>
	<path id="path90" d="M53.96 42.89C53.86 42.99 53.83 43.13 53.83 43.28C53.92 44.79 53.82 46.31 53.85 47.83C53.86 48.53 53.86 49.24 53.86 49.94C53.87 50.5 53.75 50.61 53.2 50.62C52.85 50.63 52.5 50.63 52.15 50.62C51.63 50.59 51.41 50.39 51.37 49.87C51.34 49.55 51.33 49.22 51.33 48.9C51.34 47.09 51.35 45.29 51.35 43.49C51.34 42.01 51.32 40.54 51.31 39.06C51.31 38.29 51.41 38.17 52.17 38.06C53.15 37.92 53.96 38.21 54.57 39.01C54.72 39.22 54.86 39.43 54.99 39.66C56.21 41.75 57.58 43.75 58.88 45.79C58.92 45.85 58.96 45.91 59.01 45.95C59.08 46.03 59.16 46.01 59.18 45.9C59.19 45.8 59.18 45.68 59.18 45.58C59.18 43.38 59.18 41.19 59.18 38.99C59.18 38.21 59.32 38.06 60.11 38.09C60.44 38.1 60.78 38.08 61.12 38.15C61.45 38.21 61.61 38.39 61.67 38.71C61.71 38.94 61.7 39.17 61.7 39.4C61.7 41.77 61.7 44.14 61.7 46.52C61.7 47.59 61.71 48.66 61.71 49.73C61.71 49.82 61.71 49.92 61.7 50.01C61.68 50.35 61.56 50.52 61.23 50.59C60.15 50.82 59.14 50.66 58.37 49.65C58.19 49.41 58.04 49.16 57.89 48.9C56.72 46.86 55.38 44.94 54.1 42.98C54.07 42.94 54.05 42.89 53.96 42.89Z" fill="#142B35" fill-opacity="1.000000" fill-rule="evenodd"/>
	<path id="path94" d="M73.42 43.87L75.58 43.87C76.1 43.87 76.23 43.99 76.22 44.52C76.2 45.56 76.19 46.6 76.21 47.65C76.21 47.89 76.22 48.14 76.22 48.38C76.22 48.76 76.06 49.05 75.73 49.26C74.14 50.26 72.43 50.88 70.53 50.85C69.38 50.84 68.27 50.59 67.23 50.11C65.87 49.49 64.91 48.47 64.42 47.06C63.83 45.39 63.76 43.68 64.31 41.99C64.95 40 66.28 38.71 68.32 38.16C70.03 37.7 71.72 37.76 73.38 38.4C74.66 38.89 75.45 39.82 75.89 41.09C75.91 41.17 75.93 41.25 75.94 41.33C75.96 41.48 75.92 41.59 75.73 41.6C75 41.65 74.27 41.71 73.54 41.76C73.41 41.77 73.3 41.73 73.22 41.64C73.12 41.53 73 41.42 72.92 41.3C72.29 40.36 71.37 40.02 70.3 40.06C69.3 40.1 68.42 40.44 67.72 41.17C67.23 41.68 67.01 42.33 66.85 42.98C66.54 44.18 66.67 45.34 67.15 46.48C67.56 47.44 68.25 48.06 69.24 48.38C70.23 48.7 71.23 48.72 72.22 48.35C72.55 48.23 72.85 48.05 73.12 47.82C73.41 47.57 73.55 47.26 73.53 46.88C73.52 46.74 73.52 46.59 73.51 46.44C73.49 46.02 73.46 45.99 73.03 45.97C72.47 45.95 71.91 45.93 71.36 45.92C71.2 45.91 71.03 45.91 70.87 45.91C70.61 45.89 70.53 45.84 70.49 45.58C70.44 45.15 70.47 44.72 70.54 44.29C70.57 44.05 70.72 43.93 70.94 43.9C71.08 43.88 71.21 43.88 71.35 43.88C72.04 43.87 72.73 43.88 73.42 43.88L73.42 43.87Z" fill="#142B35" fill-opacity="1.000000" fill-rule="evenodd"/>
	<path id="path98" d="M173.91 43.87C174.62 43.87 175.32 43.87 176.03 43.87C176.6 43.87 176.72 43.98 176.7 44.56C176.67 45.61 176.68 46.65 176.69 47.7C176.69 47.94 176.71 48.18 176.7 48.43C176.69 48.78 176.54 49.05 176.24 49.24C174.61 50.28 172.84 50.91 170.89 50.85C169.78 50.82 168.71 50.57 167.71 50.11C166.28 49.45 165.31 48.36 164.83 46.86C164.35 45.34 164.28 43.79 164.71 42.25C165.31 40.11 166.67 38.72 168.84 38.15C170.54 37.7 172.22 37.76 173.86 38.4C175.14 38.89 175.94 39.83 176.37 41.1C176.4 41.17 176.41 41.25 176.42 41.33C176.44 41.49 176.39 41.59 176.21 41.6C175.48 41.65 174.75 41.71 174.02 41.76C173.89 41.77 173.78 41.73 173.69 41.63C173.59 41.52 173.48 41.42 173.4 41.3C172.77 40.36 171.85 40.02 170.77 40.06C169.94 40.08 169.18 40.35 168.52 40.87C168.19 41.14 167.91 41.46 167.73 41.84C167.04 43.36 166.96 44.89 167.62 46.45C168.03 47.44 168.75 48.08 169.76 48.4C170.74 48.71 171.73 48.72 172.71 48.35C173.07 48.22 173.39 48.02 173.67 47.75C173.9 47.54 174.01 47.27 174.01 46.96C174.01 46.76 174 46.55 173.99 46.35C173.97 46.05 173.92 45.99 173.62 45.98C173.1 45.95 172.57 45.94 172.04 45.92C171.81 45.91 171.58 45.9 171.35 45.91C171.13 45.92 171.01 45.81 170.98 45.62C170.92 45.16 170.94 44.7 171.03 44.24C171.07 44.04 171.21 43.94 171.39 43.91C171.54 43.88 171.69 43.88 171.84 43.88C172.53 43.87 173.22 43.88 173.91 43.88L173.91 43.87Z" fill="#142B35" fill-opacity="1.000000" fill-rule="evenodd"/>
	<path id="path102" d="M29.39 44.15C29.39 43.95 29.41 43.75 29.39 43.54C29.24 41.32 27.83 40.28 26.3 40.09C24.64 39.89 23.09 40.81 22.56 42.41C22.4 42.86 22.32 43.32 22.28 43.79C22.19 44.87 22.34 45.9 22.87 46.86C23.49 47.98 24.71 48.85 26.37 48.6C28.05 48.34 28.81 47.36 29.16 46.12C29.34 45.48 29.41 44.82 29.39 44.15ZM25.92 50.84C25.06 50.81 24.26 50.73 23.47 50.48C21.67 49.89 20.46 48.7 19.9 46.9C19.37 45.2 19.39 43.47 19.92 41.78C20.49 39.97 21.7 38.77 23.52 38.23C25.01 37.79 26.51 37.75 28 38.18C29.89 38.72 31.19 39.94 31.82 41.79C32.44 43.61 32.4 45.45 31.69 47.24C30.91 49.2 29.41 50.3 27.37 50.7C26.87 50.8 26.37 50.81 25.92 50.84Z" fill="#142B35" fill-opacity="1.000000" fill-rule="evenodd"/>
	<path id="path106" d="M133.96 44.34C133.93 44 133.92 43.66 133.89 43.33C133.76 41.57 132.54 40.3 130.81 40.09C129.13 39.88 127.53 40.87 127.05 42.5C126.72 43.61 126.69 44.74 126.97 45.87C127.49 47.95 129.38 49.08 131.42 48.5C132.59 48.18 133.32 47.35 133.71 46.23C133.92 45.62 133.96 44.98 133.96 44.34ZM124.05 44.47C124.08 43.45 124.18 42.5 124.51 41.58C125.09 39.98 126.17 38.87 127.79 38.32C129.3 37.81 130.85 37.72 132.39 38.12C134.39 38.64 135.73 39.93 136.37 41.89C136.91 43.57 136.9 45.28 136.32 46.96C135.6 49.06 134.09 50.27 131.94 50.69C130.72 50.93 129.49 50.89 128.28 50.55C125.97 49.91 124.65 48.35 124.19 46.03C124.09 45.5 124.07 44.96 124.05 44.47Z" fill="#142B35" fill-opacity="1.000000" fill-rule="evenodd"/>
	<path id="path110" d="M106.46 50.78C105.6 50.83 104.76 50.76 103.94 50.46C102.8 50.05 101.98 49.29 101.5 48.18C101.35 47.83 101.22 47.47 101.11 47.11C101.01 46.76 101.11 46.6 101.47 46.52C102.05 46.38 102.64 46.34 103.23 46.27C103.45 46.24 103.63 46.36 103.73 46.56C103.79 46.68 103.83 46.81 103.88 46.94C104.65 48.81 107.01 49.19 108.45 48.05C108.73 47.83 108.91 47.55 108.97 47.2C109.08 46.56 108.77 46.05 108.1 45.83C107.63 45.67 107.14 45.55 106.66 45.42C105.95 45.22 105.22 45.05 104.51 44.83C103.73 44.6 102.98 44.28 102.42 43.65C101.49 42.6 101.3 41.39 101.78 40.09C102.03 39.43 102.51 38.95 103.14 38.64C105.37 37.51 107.59 37.55 109.78 38.77C110.74 39.31 111.16 40.21 111.25 41.28C111.28 41.62 111.25 41.63 110.93 41.67C110.36 41.76 109.78 41.82 109.2 41.84C108.86 41.85 108.6 41.71 108.49 41.4C108.17 40.49 107.41 40.19 106.57 40.06C106.06 39.99 105.54 40.01 105.05 40.2C104.82 40.29 104.6 40.4 104.43 40.57C104 40.99 104.02 41.53 104.48 41.91C104.66 42.07 104.89 42.17 105.11 42.27C105.85 42.58 106.64 42.7 107.41 42.9C108.18 43.09 108.93 43.29 109.64 43.63C110.59 44.1 111.27 44.79 111.53 45.84C111.72 46.62 111.71 47.4 111.47 48.17C111.26 48.86 110.83 49.41 110.24 49.84C109.42 50.44 108.48 50.71 107.48 50.78C107.14 50.8 106.8 50.78 106.46 50.78Z" fill="#142B35" fill-opacity="1.000000" fill-rule="evenodd"/>
	<path id="path114" d="M179.01 44.34C179.01 42.51 179.01 40.68 179.01 38.85C179.01 38.17 179.1 38.09 179.79 38.09C182.44 38.09 185.08 38.09 187.72 38.09C187.9 38.09 188.08 38.08 188.25 38.1C188.53 38.12 188.65 38.23 188.66 38.5C188.67 38.94 188.66 39.37 188.64 39.8C188.63 40.05 188.52 40.16 188.26 40.21C187.98 40.26 187.7 40.27 187.41 40.27C185.83 40.27 184.24 40.26 182.66 40.26C182.56 40.26 182.47 40.26 182.37 40.26C181.81 40.27 181.72 40.35 181.71 40.92C181.7 41.47 181.71 42.01 181.71 42.55C181.72 42.93 181.78 42.98 182.18 42.99C183.94 43.01 185.7 43.04 187.46 43.06C187.58 43.06 187.71 43.06 187.83 43.06C188.11 43.08 188.13 43.1 188.14 43.37C188.16 43.76 188.18 44.15 188.19 44.55C188.2 44.97 188.12 45.08 187.7 45.14C187.31 45.19 186.92 45.13 186.53 45.13C185.1 45.13 183.68 45.12 182.26 45.12C181.83 45.13 181.7 45.27 181.71 45.7C181.73 46.46 181.73 47.22 181.71 47.97C181.7 48.44 181.72 48.44 182.19 48.45C184.24 48.47 186.28 48.49 188.33 48.51C189 48.51 188.87 48.6 188.88 49.03C188.89 49.43 188.91 49.82 188.92 50.21C188.92 50.5 188.86 50.57 188.58 50.61C188.45 50.63 188.31 50.62 188.18 50.62C185.38 50.62 182.59 50.62 179.8 50.62C179.75 50.62 179.69 50.62 179.64 50.62C179.15 50.61 179.02 50.49 179.01 49.99C179.01 48.1 179.01 46.22 179.01 44.34Z" fill="#142B35" fill-opacity="1.000000" fill-rule="evenodd"/>
	<path id="path118" d="M157.67 41.26C157.64 41.26 157.62 41.26 157.59 41.25C157.46 41.59 157.33 41.93 157.2 42.26C156.83 43.23 156.45 44.2 156.08 45.17C155.95 45.51 156.01 45.58 156.37 45.59C156.94 45.6 157.51 45.59 158.08 45.59C158.37 45.59 158.67 45.6 158.97 45.59C159.26 45.58 159.32 45.49 159.24 45.21C159.22 45.12 159.17 45.03 159.14 44.94C159.01 44.63 158.88 44.32 158.76 44C158.4 43.09 158.03 42.17 157.67 41.26ZM151.23 50.62C151.18 50.44 151.27 50.33 151.31 50.22C152.87 46.36 154.44 42.51 156 38.65C156.05 38.54 156.09 38.42 156.16 38.32C156.24 38.17 156.37 38.09 156.56 38.09C157.28 38.1 157.99 38.1 158.71 38.09C158.92 38.09 159.08 38.17 159.17 38.36C159.22 38.45 159.27 38.55 159.31 38.65C160.94 42.54 162.56 46.44 164.19 50.33C164.22 50.41 164.29 50.49 164.26 50.62C163.44 50.62 162.61 50.62 161.79 50.62C161.51 50.62 161.35 50.49 161.26 50.21C161.01 49.48 160.75 48.76 160.48 48.03C160.34 47.65 160.3 47.61 159.89 47.62C158.4 47.65 156.91 47.65 155.42 47.62C155.04 47.61 154.99 47.65 154.86 48.01C154.61 48.76 154.35 49.5 154.1 50.24C154.02 50.5 153.86 50.62 153.6 50.62C152.81 50.62 152.02 50.62 151.23 50.62Z" fill="#142B35" fill-opacity="1.000000" fill-rule="evenodd"/>
	<path id="path122" d="M39.05 47.08C39.63 45.43 40.21 43.77 40.79 42.11C41.19 40.97 41.61 39.85 41.97 38.7C42.12 38.21 42.27 38.1 42.79 38.09C43.24 38.09 43.69 38.08 44.14 38.1C44.67 38.12 44.8 38.3 44.71 38.83C44.65 39.15 44.52 39.45 44.41 39.75C43.17 43.11 41.92 46.47 40.67 49.83C40.43 50.49 40.23 50.62 39.53 50.62C39.19 50.62 38.85 50.62 38.51 50.62C37.72 50.62 37.54 50.5 37.25 49.75C36.62 48.13 36 46.52 35.37 44.91C34.67 43.13 33.97 41.36 33.27 39.58C33.16 39.31 33.05 39.03 33 38.73C32.93 38.36 33.07 38.15 33.45 38.11C34.07 38.04 34.7 38.07 35.32 38.11C35.56 38.12 35.75 38.27 35.84 38.5C35.91 38.68 35.96 38.86 36.03 39.04C36.99 41.64 37.95 44.24 38.9 46.84C38.94 46.93 38.95 47.03 39.05 47.08Z" fill="#142B35" fill-opacity="1.000000" fill-rule="evenodd"/>
	<path id="path126" d="M118.12 38.09C119.56 38.09 121 38.09 122.43 38.09C123.18 38.09 123.32 38.26 123.23 38.98C123.2 39.24 123.23 39.5 123.24 39.75C123.27 40.12 123.14 40.27 122.78 40.27C121.96 40.26 121.13 40.31 120.3 40.26C120.24 40.25 120.17 40.24 120.1 40.24C119.63 40.23 119.45 40.39 119.43 40.85C119.42 41.25 119.46 41.64 119.45 42.03C119.45 44.05 119.45 46.07 119.45 48.09C119.45 48.7 119.46 49.31 119.46 49.92C119.46 50.47 119.32 50.61 118.76 50.62C118.38 50.63 118 50.63 117.62 50.62C117.05 50.59 116.83 50.36 116.78 49.78C116.71 48.95 116.74 48.1 116.74 47.26C116.72 45.3 116.69 43.33 116.77 41.37C116.78 41.23 116.78 41.1 116.77 40.96C116.72 40.43 116.47 40.18 115.95 40.23C115.15 40.31 114.35 40.25 113.55 40.27C113.01 40.29 112.88 40.17 112.87 39.62C112.86 39.32 112.86 39.02 112.88 38.73C112.9 38.32 113.05 38.17 113.45 38.12C113.59 38.1 113.74 38.1 113.89 38.1C115.3 38.1 116.71 38.1 118.12 38.1L118.12 38.09Z" fill="#142B35" fill-opacity="1.000000" fill-rule="evenodd"/>
	<path id="path130" d="M48.87 44.52C48.87 46.3 48.87 48.09 48.87 49.88C48.87 49.97 48.87 50.07 48.86 50.16C48.83 50.44 48.71 50.6 48.42 50.61C47.88 50.62 47.34 50.66 46.8 50.56C46.47 50.49 46.29 50.3 46.22 49.97C46.17 49.7 46.17 49.43 46.17 49.16C46.16 46.69 46.17 44.23 46.16 41.76C46.16 40.87 46.15 39.98 46.15 39.08C46.15 38.91 46.15 38.73 46.17 38.56C46.21 38.29 46.36 38.12 46.63 38.11C47.15 38.08 47.68 38.05 48.2 38.15C48.62 38.23 48.76 38.37 48.82 38.79C48.85 39 48.85 39.22 48.85 39.44C48.85 41.13 48.85 42.82 48.85 44.52L48.87 44.52Z" fill="#142B35" fill-opacity="1.000000" fill-rule="evenodd"/>
	<path id="path134" d="M15.01 14.74C15.01 13.82 15.01 12.9 15.01 11.98C15.01 11.69 15.02 11.68 15.3 11.68C16.29 11.68 17.28 11.68 18.27 11.68C18.56 11.68 18.57 11.69 18.57 11.97C18.58 13.85 18.57 15.73 18.58 17.62C18.58 17.83 18.51 17.9 18.3 17.9C17.3 17.89 16.3 17.9 15.29 17.89C15.02 17.89 15.01 17.89 15.01 17.59C15.01 16.64 15.01 15.69 15.01 14.74Z" fill="#142B35" fill-opacity="1.000000" fill-rule="evenodd"/>
</svg>
