<svg width="24.000000" height="24.000000" viewBox="0 0 24 24" fill="none" xmlns="http://www.w3.org/2000/svg" xmlns:xlink="http://www.w3.org/1999/xlink">
	<desc>
			Created with Pixso.
	</desc>
	<defs>
		<clipPath id="clip1_1542">
			<rect id="cil:location-pin" width="24.000000" height="24.000000" fill="white" fill-opacity="0"/>
		</clipPath>
	</defs>
	<rect id="cil:location-pin" width="24.000000" height="24.000000" fill="#FFFFFF" fill-opacity="0"/>
	<g clip-path="url(#clip1_1542)">
		<path id="Vector" d="M11.9 5.98C11.3 5.98 10.72 6.15 10.23 6.48C9.74 6.81 9.35 7.28 9.13 7.83C8.9 8.38 8.84 8.98 8.96 9.56C9.07 10.14 9.36 10.68 9.78 11.1C10.2 11.52 10.73 11.8 11.31 11.92C11.89 12.03 12.5 11.97 13.05 11.75C13.59 11.52 14.06 11.14 14.39 10.64C14.72 10.15 14.9 9.57 14.9 8.98C14.9 8.18 14.58 7.42 14.02 6.86C13.46 6.29 12.69 5.98 11.9 5.98ZM11.9 10.48C11.6 10.48 11.31 10.39 11.06 10.22C10.82 10.06 10.63 9.82 10.51 9.55C10.4 9.28 10.37 8.97 10.43 8.68C10.48 8.39 10.63 8.13 10.84 7.92C11.05 7.71 11.31 7.56 11.61 7.5C11.9 7.45 12.2 7.48 12.47 7.59C12.75 7.7 12.98 7.9 13.14 8.14C13.31 8.39 13.4 8.68 13.4 8.98C13.4 9.37 13.24 9.76 12.96 10.04C12.68 10.32 12.3 10.48 11.9 10.48Z" fill="#3A98B2" fill-opacity="1.000000" fill-rule="nonzero"/>
		<path id="Vector" d="M17.66 3.21C16.24 1.78 14.33 0.94 12.32 0.83C10.31 0.73 8.33 1.37 6.76 2.64C5.2 3.91 4.16 5.71 3.84 7.7C3.53 9.7 3.97 11.73 5.07 13.42L10.73 22.12C10.86 22.32 11.03 22.47 11.24 22.58C11.44 22.69 11.67 22.75 11.9 22.75C12.13 22.75 12.36 22.69 12.56 22.58C12.76 22.47 12.93 22.32 13.06 22.12L18.73 13.42C19.75 11.85 20.2 9.98 20.01 8.12C19.81 6.27 18.98 4.53 17.66 3.21ZM17.47 12.6L11.9 21.16L6.32 12.6C4.62 9.98 4.98 6.48 7.19 4.27C7.81 3.65 8.54 3.16 9.35 2.83C10.16 2.49 11.02 2.32 11.9 2.32C12.77 2.32 13.64 2.49 14.44 2.83C15.25 3.16 15.98 3.65 16.6 4.27C18.81 6.48 19.18 9.98 17.47 12.6Z" fill="#3A98B2" fill-opacity="1.000000" fill-rule="nonzero"/>
	</g>
</svg>
