<svg id="phone" width="18.000000" height="18.000000" viewBox="0 0 18 18" fill="none" xmlns="http://www.w3.org/2000/svg" xmlns:xlink="http://www.w3.org/1999/xlink">
	<desc>
			Created with Pixso.
	</desc>
	<defs>
		<clipPath id="clip1_1072">
			<rect id="clarity:phone-handset-line" width="18.000000" height="18.000000" fill="white" fill-opacity="0"/>
		</clipPath>
	</defs>
	<rect id="clarity:phone-handset-line" width="18.000000" height="18.000000" fill="#FFFFFF" fill-opacity="0"/>
	<g clip-path="url(#clip1_1072)">
		<path id="Vector" d="M13.86 17.72C13.69 17.71 13.52 17.7 13.36 17.66C10.23 17.01 7.35 15.5 5.05 13.29C2.8 11.07 1.23 8.25 0.55 5.16C0.47 4.78 0.49 4.38 0.61 4C0.73 3.63 0.94 3.29 1.22 3.02L3.22 1.1C3.33 1 3.45 0.92 3.58 0.88C3.71 0.83 3.85 0.81 4 0.83C4.14 0.84 4.28 0.89 4.41 0.96C4.53 1.04 4.64 1.14 4.72 1.26L7.22 4.95C7.31 5.1 7.36 5.27 7.35 5.44C7.34 5.61 7.27 5.77 7.16 5.91L5.91 7.41C6.41 8.51 7.12 9.51 8 10.35C8.87 11.22 9.9 11.91 11.03 12.39L12.59 11.16C12.72 11.06 12.87 11 13.04 10.99C13.21 10.97 13.37 11.01 13.52 11.1L17.29 13.54C17.42 13.62 17.53 13.72 17.61 13.85C17.7 13.98 17.75 14.12 17.77 14.27C17.79 14.42 17.77 14.57 17.73 14.71C17.68 14.86 17.6 14.99 17.5 15.1L15.55 17.03C15.32 17.25 15.06 17.42 14.77 17.54C14.48 17.66 14.17 17.72 13.86 17.72ZM3.91 1.82L1.91 3.74C1.75 3.89 1.63 4.08 1.57 4.29C1.5 4.5 1.49 4.72 1.54 4.94C2.18 7.84 3.64 10.49 5.75 12.57C7.91 14.65 10.62 16.08 13.57 16.68C13.79 16.73 14.02 16.72 14.24 16.66C14.45 16.59 14.65 16.48 14.82 16.32L16.77 14.39L13.12 12.03L11.45 13.36C11.39 13.41 11.31 13.44 11.23 13.46C11.15 13.47 11.07 13.47 10.99 13.45C9.6 12.93 8.35 12.12 7.31 11.07C6.24 10.07 5.41 8.84 4.88 7.47C4.85 7.39 4.85 7.3 4.87 7.22C4.89 7.13 4.94 7.06 5 7L6.34 5.38L3.91 1.82Z" fill="#142B35" fill-opacity="1.000000" fill-rule="nonzero"/>
	</g>
</svg>
