<svg width="24.000000" height="24.000000" viewBox="0 0 24 24" fill="none" xmlns="http://www.w3.org/2000/svg" xmlns:xlink="http://www.w3.org/1999/xlink">
	<desc>
			Created with Pixso.
	</desc>
	<defs>
		<clipPath id="clip1_1538">
			<rect id="clarity:phone-handset-line" width="24.000000" height="24.000000" fill="white" fill-opacity="0"/>
		</clipPath>
	</defs>
	<rect id="clarity:phone-handset-line" width="24.000000" height="24.000000" fill="#FFFFFF" fill-opacity="0"/>
	<g clip-path="url(#clip1_1538)">
		<path id="Vector" d="M18.48 23.62C18.26 23.62 18.03 23.6 17.82 23.55C13.65 22.69 9.81 20.66 6.74 17.71C3.73 14.76 1.65 11 0.74 6.88C0.63 6.37 0.65 5.84 0.81 5.34C0.97 4.84 1.25 4.39 1.64 4.03L4.3 1.46C4.44 1.33 4.6 1.23 4.78 1.17C4.95 1.11 5.14 1.09 5.33 1.1C5.52 1.12 5.71 1.18 5.88 1.28C6.04 1.38 6.19 1.52 6.3 1.68L9.63 6.61C9.75 6.8 9.81 7.03 9.8 7.25C9.79 7.48 9.7 7.7 9.56 7.87L7.88 9.87C8.55 11.35 9.49 12.68 10.66 13.8C11.82 14.96 13.2 15.89 14.71 16.53L16.78 14.88C16.96 14.74 17.17 14.66 17.39 14.65C17.61 14.63 17.83 14.69 18.02 14.8L23.06 18.06C23.23 18.16 23.37 18.3 23.49 18.47C23.6 18.64 23.67 18.83 23.69 19.03C23.72 19.23 23.7 19.43 23.64 19.62C23.57 19.81 23.47 19.98 23.33 20.13L20.73 22.7C20.43 23 20.08 23.23 19.7 23.39C19.31 23.54 18.9 23.62 18.48 23.62ZM5.22 2.42L2.56 4.99C2.34 5.19 2.18 5.44 2.09 5.72C2.01 6 1.99 6.3 2.06 6.59C2.9 10.45 4.85 13.98 7.66 16.76C10.55 19.54 14.17 21.44 18.09 22.25C18.39 22.31 18.69 22.3 18.98 22.21C19.27 22.13 19.54 21.97 19.76 21.76L22.36 19.18L17.5 16.04L15.27 17.82C15.18 17.88 15.08 17.93 14.98 17.95C14.87 17.97 14.76 17.96 14.66 17.93C12.81 17.25 10.94 16.29 9.56 14.88C8.13 13.55 7.21 11.79 6.5 9.96C6.47 9.85 6.47 9.73 6.5 9.62C6.53 9.51 6.58 9.41 6.66 9.33L8.46 7.17L5.22 2.42Z" fill="#3A98B2" fill-opacity="1.000000" fill-rule="nonzero"/>
	</g>
</svg>
